<svg width="150" height="150" viewBox="0 0 150 150" fill="none" xmlns="http://www.w3.org/2000/svg">
<circle cx="75" cy="75" r="74.5" fill="white" stroke="#0066FF"/>
<mask id="path-2-inside-1_2_2138" fill="white">
<path d="M104.783 76.9643C104.333 72.0393 103.591 71.0802 103.311 70.7194C102.667 69.8858 101.637 69.341 100.547 68.7694C100.485 68.7377 100.432 68.6923 100.392 68.6371C100.351 68.5818 100.324 68.5181 100.313 68.451C100.302 68.3839 100.307 68.3151 100.328 68.2503C100.349 68.1854 100.385 68.1262 100.433 68.0772C100.635 67.8776 100.79 67.6377 100.888 67.3741C100.986 67.1105 101.024 66.8294 101 66.5501C100.953 66.0548 100.716 65.5948 100.338 65.2614C99.9592 64.928 99.4658 64.7454 98.9556 64.75H97.0053C96.9217 64.7505 96.8383 64.7558 96.7553 64.7658C96.6984 64.7418 96.6394 64.7226 96.579 64.7086C95.4239 62.3283 93.8424 59.0694 90.5644 57.4789C85.7024 55.1219 76.7461 55 74.9959 55C73.2456 55 64.2893 55.1219 59.4336 57.4753C56.1556 59.0657 54.5741 62.3247 53.4189 64.7049L53.4089 64.7244C53.3513 64.7323 53.2947 64.7462 53.2402 64.7658C53.1572 64.7558 53.0737 64.7505 52.9901 64.75H51.0361C50.5259 64.7454 50.0325 64.928 49.6539 65.2614C49.2753 65.5948 49.039 66.0548 48.992 66.5501C48.9698 66.8288 49.0096 67.1088 49.1086 67.3711C49.2077 67.6334 49.3636 67.8717 49.5659 68.0699C49.6142 68.1188 49.6503 68.1781 49.6712 68.243C49.692 68.3078 49.6972 68.3765 49.6861 68.4437C49.6751 68.5108 49.6482 68.5745 49.6076 68.6298C49.567 68.685 49.5137 68.7303 49.4521 68.7621C48.3619 69.3374 47.3268 69.8822 46.6879 70.7121C46.4079 71.0777 45.6678 72.032 45.2165 76.957C44.9664 79.7284 44.9289 82.5974 45.1252 84.445C45.5365 88.2841 46.3079 90.6046 46.3404 90.7008C46.4588 91.0512 46.6766 91.3617 46.9687 91.5962C47.2608 91.8307 47.6152 91.9796 47.9906 92.0256V92.05C47.9906 92.5672 48.2014 93.0632 48.5765 93.4289C48.9516 93.7946 49.4604 94 49.9909 94H56.992C57.5225 94 58.0313 93.7946 58.4064 93.4289C58.7815 93.0632 58.9923 92.5672 58.9923 92.05C60.0687 92.05 60.8175 91.8623 61.6114 91.6624C62.7575 91.3614 63.9291 91.1611 65.1119 91.064C68.9262 90.7094 72.7193 90.5875 74.9959 90.5875C77.2262 90.5875 81.1868 90.7094 85.0073 91.064C86.1948 91.1613 87.371 91.3624 88.5216 91.6649C89.2817 91.855 90.0031 92.0305 91.002 92.0488C91.002 92.566 91.2127 93.0619 91.5878 93.4276C91.963 93.7933 92.4717 93.9988 93.0023 93.9988H100.003C100.534 93.9988 101.043 93.7933 101.418 93.4276C101.793 93.0619 102.004 92.566 102.004 92.0488V92.0342C102.38 91.989 102.735 91.8405 103.028 91.6059C103.321 91.3714 103.54 91.0604 103.659 90.7094C103.691 90.6131 104.463 88.2926 104.874 84.4535C105.07 82.6047 105.035 79.7406 104.783 76.9643ZM57.0345 66.3722C58.0346 64.3003 59.1785 61.9554 61.2151 60.967C64.158 59.5386 70.2577 58.8951 74.9959 58.8951C79.7341 58.8951 85.8337 59.5338 88.7766 60.967C90.8132 61.9554 91.9521 64.3015 92.9572 66.3722L93.0823 66.6366C93.1554 66.7872 93.1877 66.9535 93.1761 67.1197C93.1646 67.2859 93.1095 67.4464 93.0163 67.586C92.923 67.7256 92.7946 67.8395 92.6433 67.917C92.4921 67.9944 92.3229 68.0328 92.1521 68.0284C87.9978 67.9187 79.2465 67.5677 74.9959 67.5677C70.7452 67.5677 61.9939 67.9273 57.8333 68.037C57.6625 68.0413 57.4934 68.0029 57.3421 67.9255C57.1909 67.848 57.0625 67.7341 56.9692 67.5945C56.8759 67.455 56.8209 67.2944 56.8093 67.1282C56.7978 66.962 56.8301 66.7957 56.9032 66.6452C56.947 66.555 56.9932 66.4636 57.0345 66.3722ZM58.5259 76.0771C56.3754 76.3294 54.2111 76.4539 52.045 76.45C50.7198 76.45 49.3533 76.0844 49.0995 74.9339C48.9258 74.16 48.9445 73.7249 49.0383 73.2873C49.117 72.9156 49.2421 72.6451 49.8672 72.55C51.4924 72.3062 52.4013 72.6122 55.0617 73.3763C56.8257 73.8821 58.0984 74.5561 58.8235 75.0899C59.1873 75.3531 58.9935 76.0405 58.5259 76.0771ZM86.2025 86.0708C84.5573 86.2536 81.2668 86.1866 75.0334 86.1866C68.7999 86.1866 65.5107 86.2536 63.8655 86.0708C62.1677 85.8868 60.0036 84.3219 61.4814 82.9277C62.4653 82.0087 64.7606 81.3213 67.8173 80.935C70.874 80.5487 72.1679 80.35 75.0209 80.35C77.8738 80.35 79.0364 80.4719 82.2244 80.9362C85.4124 81.4006 87.8215 82.0965 88.5604 82.9289C89.9081 84.4206 87.899 85.877 86.2025 86.0781V86.0708ZM100.892 74.9327C100.642 76.088 99.2669 76.4488 97.9467 76.4488C95.7392 76.4493 93.5335 76.3248 91.3408 76.0758C90.9582 76.0405 90.7807 75.386 91.1682 75.0887C91.8821 74.5414 93.1685 73.8809 94.93 73.3751C97.5904 72.6109 99.1244 72.305 100.442 72.5598C100.763 72.6219 100.933 72.9583 100.953 73.1691C101.042 73.7562 101.021 74.354 100.892 74.9339V74.9327Z"/>
</mask>
<path d="M104.783 76.9643C104.333 72.0393 103.591 71.0802 103.311 70.7194C102.667 69.8858 101.637 69.341 100.547 68.7694C100.485 68.7377 100.432 68.6923 100.392 68.6371C100.351 68.5818 100.324 68.5181 100.313 68.451C100.302 68.3839 100.307 68.3151 100.328 68.2503C100.349 68.1854 100.385 68.1262 100.433 68.0772C100.635 67.8776 100.79 67.6377 100.888 67.3741C100.986 67.1105 101.024 66.8294 101 66.5501C100.953 66.0548 100.716 65.5948 100.338 65.2614C99.9592 64.928 99.4658 64.7454 98.9556 64.75H97.0053C96.9217 64.7505 96.8383 64.7558 96.7553 64.7658C96.6984 64.7418 96.6394 64.7226 96.579 64.7086C95.4239 62.3283 93.8424 59.0694 90.5644 57.4789C85.7024 55.1219 76.7461 55 74.9959 55C73.2456 55 64.2893 55.1219 59.4336 57.4753C56.1556 59.0657 54.5741 62.3247 53.4189 64.7049L53.4089 64.7244C53.3513 64.7323 53.2947 64.7462 53.2402 64.7658C53.1572 64.7558 53.0737 64.7505 52.9901 64.75H51.0361C50.5259 64.7454 50.0325 64.928 49.6539 65.2614C49.2753 65.5948 49.039 66.0548 48.992 66.5501C48.9698 66.8288 49.0096 67.1088 49.1086 67.3711C49.2077 67.6334 49.3636 67.8717 49.5659 68.0699C49.6142 68.1188 49.6503 68.1781 49.6712 68.243C49.692 68.3078 49.6972 68.3765 49.6861 68.4437C49.6751 68.5108 49.6482 68.5745 49.6076 68.6298C49.567 68.685 49.5137 68.7303 49.4521 68.7621C48.3619 69.3374 47.3268 69.8822 46.6879 70.7121C46.4079 71.0777 45.6678 72.032 45.2165 76.957C44.9664 79.7284 44.9289 82.5974 45.1252 84.445C45.5365 88.2841 46.3079 90.6046 46.3404 90.7008C46.4588 91.0512 46.6766 91.3617 46.9687 91.5962C47.2608 91.8307 47.6152 91.9796 47.9906 92.0256V92.05C47.9906 92.5672 48.2014 93.0632 48.5765 93.4289C48.9516 93.7946 49.4604 94 49.9909 94H56.992C57.5225 94 58.0313 93.7946 58.4064 93.4289C58.7815 93.0632 58.9923 92.5672 58.9923 92.05C60.0687 92.05 60.8175 91.8623 61.6114 91.6624C62.7575 91.3614 63.9291 91.1611 65.1119 91.064C68.9262 90.7094 72.7193 90.5875 74.9959 90.5875C77.2262 90.5875 81.1868 90.7094 85.0073 91.064C86.1948 91.1613 87.371 91.3624 88.5216 91.6649C89.2817 91.855 90.0031 92.0305 91.002 92.0488C91.002 92.566 91.2127 93.0619 91.5878 93.4276C91.963 93.7933 92.4717 93.9988 93.0023 93.9988H100.003C100.534 93.9988 101.043 93.7933 101.418 93.4276C101.793 93.0619 102.004 92.566 102.004 92.0488V92.0342C102.38 91.989 102.735 91.8405 103.028 91.6059C103.321 91.3714 103.54 91.0604 103.659 90.7094C103.691 90.6131 104.463 88.2926 104.874 84.4535C105.07 82.6047 105.035 79.7406 104.783 76.9643ZM57.0345 66.3722C58.0346 64.3003 59.1785 61.9554 61.2151 60.967C64.158 59.5386 70.2577 58.8951 74.9959 58.8951C79.7341 58.8951 85.8337 59.5338 88.7766 60.967C90.8132 61.9554 91.9521 64.3015 92.9572 66.3722L93.0823 66.6366C93.1554 66.7872 93.1877 66.9535 93.1761 67.1197C93.1646 67.2859 93.1095 67.4464 93.0163 67.586C92.923 67.7256 92.7946 67.8395 92.6433 67.917C92.4921 67.9944 92.3229 68.0328 92.1521 68.0284C87.9978 67.9187 79.2465 67.5677 74.9959 67.5677C70.7452 67.5677 61.9939 67.9273 57.8333 68.037C57.6625 68.0413 57.4934 68.0029 57.3421 67.9255C57.1909 67.848 57.0625 67.7341 56.9692 67.5945C56.8759 67.455 56.8209 67.2944 56.8093 67.1282C56.7978 66.962 56.8301 66.7957 56.9032 66.6452C56.947 66.555 56.9932 66.4636 57.0345 66.3722ZM58.5259 76.0771C56.3754 76.3294 54.2111 76.4539 52.045 76.45C50.7198 76.45 49.3533 76.0844 49.0995 74.9339C48.9258 74.16 48.9445 73.7249 49.0383 73.2873C49.117 72.9156 49.2421 72.6451 49.8672 72.55C51.4924 72.3062 52.4013 72.6122 55.0617 73.3763C56.8257 73.8821 58.0984 74.5561 58.8235 75.0899C59.1873 75.3531 58.9935 76.0405 58.5259 76.0771ZM86.2025 86.0708C84.5573 86.2536 81.2668 86.1866 75.0334 86.1866C68.7999 86.1866 65.5107 86.2536 63.8655 86.0708C62.1677 85.8868 60.0036 84.3219 61.4814 82.9277C62.4653 82.0087 64.7606 81.3213 67.8173 80.935C70.874 80.5487 72.1679 80.35 75.0209 80.35C77.8738 80.35 79.0364 80.4719 82.2244 80.9362C85.4124 81.4006 87.8215 82.0965 88.5604 82.9289C89.9081 84.4206 87.899 85.877 86.2025 86.0781V86.0708ZM100.892 74.9327C100.642 76.088 99.2669 76.4488 97.9467 76.4488C95.7392 76.4493 93.5335 76.3248 91.3408 76.0758C90.9582 76.0405 90.7807 75.386 91.1682 75.0887C91.8821 74.5414 93.1685 73.8809 94.93 73.3751C97.5904 72.6109 99.1244 72.305 100.442 72.5598C100.763 72.6219 100.933 72.9583 100.953 73.1691C101.042 73.7562 101.021 74.354 100.892 74.9339V74.9327Z" fill="#0066FF"/>
<path d="M104.783 76.9643L105.779 76.8737L105.779 76.8733L104.783 76.9643ZM103.311 70.7194L102.52 71.3307L102.521 71.3326L103.311 70.7194ZM100.547 68.7694L101.011 67.8838L101.005 67.8806L100.547 68.7694ZM100.433 68.0772L99.7302 67.366L99.722 67.3743L100.433 68.0772ZM101 66.5501L101.996 66.4635L101.995 66.4556L101 66.5501ZM98.9556 64.75V65.75L98.9646 65.75L98.9556 64.75ZM97.0053 64.75V63.75L96.9996 63.75L97.0053 64.75ZM96.7553 64.7658L96.3658 65.6869L96.6113 65.7907L96.8758 65.7586L96.7553 64.7658ZM96.579 64.7086L95.6794 65.1452L95.8877 65.5745L96.3525 65.6826L96.579 64.7086ZM90.5644 57.4789L91.0009 56.5792L91.0006 56.5791L90.5644 57.4789ZM59.4336 57.4753L58.9974 56.5754L58.997 56.5756L59.4336 57.4753ZM53.4189 64.7049L54.3087 65.1613L54.3138 65.1515L54.3186 65.1415L53.4189 64.7049ZM53.4089 64.7244L53.5448 65.7151L54.0609 65.6444L54.2987 65.1808L53.4089 64.7244ZM53.2402 64.7658L53.1196 65.7586L53.3554 65.7872L53.5788 65.7068L53.2402 64.7658ZM52.9901 64.75L52.9959 63.75H52.9901V64.75ZM51.0361 64.75L51.0271 65.75H51.0361V64.75ZM48.992 66.5501L47.9965 66.4556L47.9958 66.4631L47.9952 66.4707L48.992 66.5501ZM49.5659 68.0699L50.2772 67.367L50.2715 67.3612L50.2657 67.3556L49.5659 68.0699ZM49.4521 68.7621L48.9939 67.8732L48.9854 67.8777L49.4521 68.7621ZM46.6879 70.7121L45.8955 70.1022L45.8941 70.1041L46.6879 70.7121ZM45.2165 76.957L44.2206 76.8657L44.2205 76.8671L45.2165 76.957ZM45.1252 84.445L44.1308 84.5506L44.1309 84.5515L45.1252 84.445ZM46.3404 90.7008L45.3929 91.0207L45.393 91.0209L46.3404 90.7008ZM47.9906 92.0256H48.9906V91.1408L48.1124 91.0331L47.9906 92.0256ZM47.9906 92.05H46.9906H47.9906ZM58.9923 92.05V91.05H57.9923V92.05H58.9923ZM61.6114 91.6624L61.8556 92.6322L61.8654 92.6296L61.6114 91.6624ZM65.1119 91.064L65.1937 92.0607L65.2045 92.0597L65.1119 91.064ZM85.0073 91.064L84.9149 92.0598L84.9257 92.0607L85.0073 91.064ZM88.5216 91.6649L88.2673 92.6321L88.2789 92.635L88.5216 91.6649ZM91.002 92.0488H92.002V91.0669L91.0203 91.049L91.002 92.0488ZM102.004 92.0342L101.884 91.0413L101.004 91.147V92.0342H102.004ZM103.659 90.7094L104.606 91.0298L104.606 91.0292L103.659 90.7094ZM104.874 84.4535L105.868 84.5601L105.868 84.5591L104.874 84.4535ZM57.0345 66.3722L56.1339 65.9374L56.1283 65.949L56.123 65.9608L57.0345 66.3722ZM61.2151 60.967L61.6517 61.8666L61.6517 61.8666L61.2151 60.967ZM88.7766 60.967L88.3388 61.8661L88.34 61.8666L88.7766 60.967ZM92.9572 66.3722L93.8614 65.9448L93.8569 65.9355L92.9572 66.3722ZM93.0823 66.6366L92.1781 67.064L92.1827 67.0734L93.0823 66.6366ZM92.1521 68.0284L92.1257 69.0281L92.1266 69.0281L92.1521 68.0284ZM57.8333 68.037L57.8588 69.0366L57.8597 69.0366L57.8333 68.037ZM56.9032 66.6452L57.8028 67.082L57.8029 67.0817L56.9032 66.6452ZM58.5259 76.0771L58.448 75.0801L58.4287 75.0816L58.4094 75.0839L58.5259 76.0771ZM52.045 76.45L52.0468 75.45H52.045V76.45ZM49.0995 74.9339L50.0761 74.7185L50.0753 74.7148L49.0995 74.9339ZM49.0383 73.2873L50.0161 73.4969L50.0166 73.4946L49.0383 73.2873ZM49.8672 72.55L49.7188 71.5611L49.7168 71.5614L49.8672 72.55ZM55.0617 73.3763L54.7856 74.3375L54.7861 74.3376L55.0617 73.3763ZM58.8235 75.0899L58.2306 75.8952L58.2373 75.9L58.8235 75.0899ZM86.2025 86.0708H87.2025V84.9535L86.0921 85.0769L86.2025 86.0708ZM63.8655 86.0708L63.9759 85.0769L63.9732 85.0766L63.8655 86.0708ZM61.4814 82.9277L60.7988 82.1968L60.7951 82.2003L61.4814 82.9277ZM88.5604 82.9289L87.8124 83.5927L87.8183 83.5992L88.5604 82.9289ZM86.2025 86.0781H85.2025V87.2037L86.3202 87.0712L86.2025 86.0781ZM100.892 74.9327H101.892L99.9148 74.7211L100.892 74.9327ZM97.9467 76.4488V75.4488H97.9465L97.9467 76.4488ZM91.3408 76.0758L91.4536 75.0822L91.4432 75.081L91.4328 75.0801L91.3408 76.0758ZM91.1682 75.0887L90.5598 74.295L90.5595 74.2953L91.1682 75.0887ZM94.93 73.3751L95.206 74.3363L95.2061 74.3362L94.93 73.3751ZM100.442 72.5598L100.632 71.578L100.632 71.5779L100.442 72.5598ZM100.953 73.1691L99.9579 73.2636L99.9605 73.2907L99.9645 73.3177L100.953 73.1691ZM100.892 74.9339H99.8922L101.868 75.1505L100.892 74.9339ZM105.779 76.8733C105.322 71.8797 104.556 70.6916 104.101 70.1062L102.521 71.3326C102.627 71.4688 103.343 72.199 103.787 77.0553L105.779 76.8733ZM104.103 70.1082C103.3 69.0686 102.051 68.429 101.011 67.8838L100.083 69.6551C101.223 70.2531 102.035 70.703 102.52 71.3307L104.103 70.1082ZM101.005 67.8806C101.079 67.9187 101.146 67.9743 101.197 68.0449L99.5858 69.2292C99.7189 69.4104 99.8917 69.5566 100.089 69.6583L101.005 67.8806ZM101.197 68.0449C101.249 68.1157 101.285 68.199 101.3 68.2888L99.3263 68.6131C99.3631 68.8372 99.4526 69.048 99.5858 69.2292L101.197 68.0449ZM101.3 68.2888C101.315 68.3786 101.308 68.4705 101.28 68.5565L99.3761 67.944C99.3067 68.1598 99.2895 68.3891 99.3263 68.6131L101.3 68.2888ZM101.28 68.5565C101.252 68.6425 101.205 68.7187 101.145 68.7801L99.722 67.3743C99.5646 67.5336 99.4455 67.7283 99.3761 67.944L101.28 68.5565ZM101.136 68.7883C101.441 68.4872 101.677 68.1236 101.826 67.7218L99.9506 67.0264C99.904 67.1519 99.8295 67.268 99.7303 67.3661L101.136 68.7883ZM101.826 67.7218C101.975 67.32 102.033 66.8906 101.996 66.4635L100.003 66.6367C100.015 66.7683 99.997 66.9011 99.9506 67.0264L101.826 67.7218ZM101.995 66.4556C101.924 65.7031 101.565 65.0099 100.999 64.5109L99.6769 66.0119C99.8676 66.1798 99.9816 66.4065 100.004 66.6446L101.995 66.4556ZM100.999 64.5109C100.433 64.0126 99.7002 63.7433 98.9467 63.75L98.9646 65.75C99.2315 65.7476 99.4855 65.8433 99.6769 66.0119L100.999 64.5109ZM98.9556 63.75H97.0053V65.75H98.9556V63.75ZM96.9996 63.75C96.8776 63.7507 96.7558 63.7584 96.6348 63.7731L96.8758 65.7586C96.9207 65.7531 96.9659 65.7502 97.0111 65.75L96.9996 63.75ZM97.1448 63.8448C97.035 63.7984 96.9215 63.7615 96.8056 63.7346L96.3525 65.6826C96.3573 65.6837 96.3617 65.6851 96.3658 65.6869L97.1448 63.8448ZM97.4787 64.2719C96.3452 61.9363 94.6354 58.3427 91.0009 56.5792L90.1279 58.3786C93.0493 59.7961 94.5026 62.7204 95.6794 65.1452L97.4787 64.2719ZM91.0006 56.5791C88.4045 55.3205 84.803 54.6882 81.7187 54.3611C78.6046 54.0309 75.8895 54 74.9959 54V56C75.8525 56 78.4906 56.03 81.5078 56.35C84.5547 56.6731 87.8624 57.2803 90.1282 58.3788L91.0006 56.5791ZM74.9959 54C74.1022 54 71.3871 54.0309 68.2739 54.3607C65.1906 54.6873 61.5905 55.3186 58.9974 56.5754L59.8697 58.3752C62.1323 57.2786 65.4383 56.6722 68.4846 56.3495C71.501 56.03 74.1392 56 74.9959 56V54ZM58.997 56.5756C55.3625 58.3391 53.6528 61.9327 52.5193 64.2683L54.3186 65.1415C55.4954 62.7167 56.9487 59.7924 59.8701 58.375L58.997 56.5756ZM52.5292 64.2485L52.5192 64.268L54.2987 65.1808L54.3087 65.1613L52.5292 64.2485ZM53.2731 63.7337C53.1465 63.751 53.0219 63.7816 52.9015 63.8249L53.5788 65.7068C53.5676 65.7108 53.5562 65.7136 53.5448 65.7151L53.2731 63.7337ZM53.3607 63.7731C53.2396 63.7584 53.1178 63.7507 52.9959 63.75L52.9843 65.75C53.0296 65.7502 53.0748 65.7531 53.1196 65.7586L53.3607 63.7731ZM52.9901 63.75H51.0361V65.75H52.9901V63.75ZM51.045 63.75C50.2915 63.7433 49.5589 64.0126 48.993 64.5109L50.3148 66.0119C50.5062 65.8433 50.7602 65.7476 51.0271 65.75L51.045 63.75ZM48.993 64.5109C48.4265 65.0099 48.0679 65.7031 47.9965 66.4556L49.9876 66.6446C50.0102 66.4065 50.1241 66.1798 50.3148 66.0119L48.993 64.5109ZM47.9952 66.4707C47.9612 66.8967 48.0221 67.3245 48.1731 67.7243L50.0442 67.0179C49.9971 66.8931 49.9784 66.7608 49.9889 66.6295L47.9952 66.4707ZM48.1731 67.7243C48.324 68.1241 48.561 68.4853 48.866 68.7842L50.2657 67.3556C50.1663 67.2582 50.0913 67.1427 50.0442 67.0179L48.1731 67.7243ZM48.8545 68.7727C48.7939 68.7114 48.7469 68.6352 48.7192 68.5492L50.6231 67.9367C50.5537 67.721 50.4346 67.5263 50.2772 67.367L48.8545 68.7727ZM48.7192 68.5492C48.6915 68.4632 48.6846 68.3713 48.6994 68.2815L50.6729 68.6058C50.7097 68.3817 50.6925 68.1525 50.6231 67.9367L48.7192 68.5492ZM48.6994 68.2815C48.7141 68.1917 48.7498 68.1083 48.8018 68.0376L50.4134 69.2219C50.5466 69.0407 50.6361 68.8299 50.6729 68.6058L48.6994 68.2815ZM48.8018 68.0376C48.8536 67.967 48.9199 67.9114 48.9939 67.8733L49.9103 69.651C50.1075 69.5493 50.2803 69.4031 50.4134 69.2219L48.8018 68.0376ZM48.9854 67.8777C47.9509 68.4236 46.6938 69.065 45.8955 70.1022L47.4804 71.3221C47.9597 70.6993 48.773 70.2512 49.9188 69.6465L48.9854 67.8777ZM45.8941 70.1041C45.4446 70.6908 44.6785 71.869 44.2206 76.8657L46.2123 77.0483C46.657 72.1951 47.3712 71.4647 47.4818 71.3202L45.8941 70.1041ZM44.2205 76.8671C43.9673 79.6737 43.925 82.6137 44.1308 84.5506L46.1196 84.3394C45.9328 82.581 45.9656 79.7832 46.2124 77.0469L44.2205 76.8671ZM44.1309 84.5515C44.5515 88.4777 45.3422 90.8706 45.3929 91.0207L47.2879 90.381C47.2735 90.3386 46.5215 88.0904 46.1195 84.3385L44.1309 84.5515ZM45.393 91.0209C45.5733 91.5545 45.9039 92.0237 46.3427 92.376L47.5948 90.8164C47.4494 90.6997 47.3443 90.5479 47.2878 90.3808L45.393 91.0209ZM46.3427 92.376C46.7814 92.7281 47.3108 92.9497 47.8689 93.0182L48.1124 91.0331C47.9196 91.0094 47.7403 90.9332 47.5948 90.8164L46.3427 92.376ZM46.9906 92.0256V92.05H48.9906V92.0256H46.9906ZM46.9906 92.05C46.9906 92.8407 47.3131 93.5938 47.8785 94.1449L49.2746 92.7128C49.0897 92.5326 48.9906 92.2936 48.9906 92.05H46.9906ZM47.8785 94.1449C48.443 94.6952 49.2033 95 49.9909 95V93C49.7175 93 49.4603 92.8939 49.2746 92.7128L47.8785 94.1449ZM49.9909 95H56.992V93H49.9909V95ZM56.992 95C57.7796 95 58.5399 94.6952 59.1044 94.1449L57.7083 92.7128C57.5226 92.8939 57.2654 93 56.992 93V95ZM59.1044 94.1449C59.6698 93.5938 59.9923 92.8407 59.9923 92.05H57.9923C57.9923 92.2936 57.8932 92.5326 57.7083 92.7128L59.1044 94.1449ZM58.9923 93.05C60.2012 93.05 61.0526 92.8343 61.8555 92.6322L61.3672 90.6927C60.5824 90.8903 59.9362 91.05 58.9923 91.05V93.05ZM61.8654 92.6296C62.9551 92.3434 64.0689 92.153 65.1937 92.0607L65.0301 90.0674C63.7892 90.1692 62.56 90.3793 61.3573 90.6953L61.8654 92.6296ZM65.2045 92.0597C68.9846 91.7083 72.7466 91.5875 74.9959 91.5875V89.5875C72.692 89.5875 68.8678 89.7105 65.0193 90.0683L65.2045 92.0597ZM74.9959 91.5875C77.2001 91.5875 81.1295 91.7084 84.9149 92.0598L85.0998 90.0683C81.244 89.7104 77.2522 89.5875 74.9959 89.5875V91.5875ZM84.9257 92.0607C86.055 92.1532 87.1734 92.3444 88.2674 92.632L88.7758 90.6977C87.5686 90.3804 86.3347 90.1694 85.089 90.0674L84.9257 92.0607ZM88.2789 92.635C89.049 92.8276 89.8638 93.0281 90.9837 93.0486L91.0203 91.049C90.1424 91.0329 89.5144 90.8824 88.7642 90.6948L88.2789 92.635ZM90.002 92.0488C90.002 92.8395 90.3244 93.5925 90.8898 94.1437L92.2859 92.7116C92.101 92.5314 92.002 92.2924 92.002 92.0488H90.002ZM90.8898 94.1437C91.4543 94.694 92.2146 94.9988 93.0023 94.9988V92.9988C92.7289 92.9988 92.4716 92.8927 92.2859 92.7116L90.8898 94.1437ZM93.0023 94.9988H100.003V92.9988H93.0023V94.9988ZM100.003 94.9988C100.791 94.9988 101.551 94.694 102.116 94.1437L100.72 92.7116C100.534 92.8927 100.277 92.9988 100.003 92.9988V94.9988ZM102.116 94.1437C102.681 93.5925 103.004 92.8395 103.004 92.0488H101.004C101.004 92.2924 100.905 92.5314 100.72 92.7116L102.116 94.1437ZM103.004 92.0488V92.0342H101.004V92.0488H103.004ZM102.123 93.027C102.682 92.9599 103.213 92.7388 103.653 92.3866L102.404 90.8252C102.257 90.9421 102.078 91.0181 101.884 91.0413L102.123 93.027ZM103.653 92.3866C104.094 92.0343 104.425 91.5644 104.606 91.0298L102.712 90.389C102.655 90.5565 102.549 90.7085 102.404 90.8252L103.653 92.3866ZM104.606 91.0292C104.657 90.8791 105.448 88.4862 105.868 84.5601L103.88 84.347C103.478 88.099 102.726 90.3471 102.711 90.3895L104.606 91.0292ZM105.868 84.5591C106.074 82.6214 106.034 79.6864 105.779 76.8737L103.787 77.0549C104.036 79.7949 104.066 82.5879 103.88 84.348L105.868 84.5591ZM57.935 66.8069C58.4403 65.7602 58.945 64.7252 59.5603 63.8295C60.1728 62.938 60.848 62.2567 61.6517 61.8666L60.7785 60.0674C59.5456 60.6657 58.6305 61.651 57.9119 62.697C57.1961 63.7388 56.6288 64.9122 56.1339 65.9374L57.935 66.8069ZM61.6517 61.8666C62.9752 61.2243 65.106 60.7224 67.5676 60.3862C70.0031 60.0536 72.6671 59.8951 74.9959 59.8951V57.8951C72.5864 57.8951 69.8315 58.0584 67.2969 58.4046C64.7884 58.7473 62.3979 59.2814 60.7784 60.0674L61.6517 61.8666ZM74.9959 59.8951C77.325 59.8951 79.989 60.0524 82.4244 60.3844C84.886 60.72 87.016 61.2218 88.3388 61.866L89.2145 60.068C87.5943 59.2789 85.2031 58.7448 82.6946 58.4028C80.1599 58.0572 77.405 57.8951 74.9959 57.8951V59.8951ZM88.34 61.8666C89.1432 62.2565 89.8171 62.9376 90.4292 63.8296C91.0445 64.7261 91.549 65.761 92.0576 66.8088L93.8569 65.9355C93.3604 64.9127 92.7929 63.7392 92.0782 62.6979C91.3605 61.652 90.4466 60.6659 89.2133 60.0674L88.34 61.8666ZM92.0532 66.7995L92.1782 67.064L93.9863 66.2093L93.8613 65.9448L92.0532 66.7995ZM92.1827 67.0734C92.1798 67.0675 92.1779 67.0594 92.1785 67.0503L94.1737 67.189C94.1975 66.8476 94.1309 66.5069 93.9818 66.1998L92.1827 67.0734ZM92.1785 67.0503C92.1792 67.0413 92.1821 67.0345 92.1848 67.0304L93.8477 68.1416C94.037 67.8584 94.15 67.5304 94.1737 67.189L92.1785 67.0503ZM92.1848 67.0304C92.1875 67.0264 92.1891 67.026 92.1876 67.0268L93.0991 68.8071C93.4001 68.653 93.6585 68.4247 93.8477 68.1416L92.1848 67.0304ZM92.1876 67.0268C92.1859 67.0277 92.1823 67.0289 92.1776 67.0288L92.1266 69.0281C92.4636 69.0367 92.7982 68.9611 93.0991 68.8071L92.1876 67.0268ZM92.1785 67.0288C88.0561 66.9199 79.2629 66.5677 74.9959 66.5677V68.5677C79.2301 68.5677 87.9394 68.9176 92.1257 69.0281L92.1785 67.0288ZM74.9959 66.5677C70.7293 66.5677 61.9335 66.9285 57.807 67.0373L57.8597 69.0366C62.0544 68.926 70.7612 68.5677 74.9959 68.5677V66.5677ZM57.8078 67.0373C57.8031 67.0374 57.7996 67.0363 57.7979 67.0354L56.8864 68.8156C57.1872 68.9696 57.5219 69.0452 57.8588 69.0366L57.8078 67.0373ZM57.7979 67.0354C57.7963 67.0346 57.798 67.0349 57.8006 67.0389L56.1378 68.1502C56.3269 68.4332 56.5854 68.6615 56.8864 68.8156L57.7979 67.0354ZM57.8006 67.0389C57.8034 67.043 57.8063 67.0499 57.8069 67.0589L55.8117 67.1976C55.8355 67.539 55.9485 67.8669 56.1378 68.1502L57.8006 67.0389ZM57.8069 67.0589C57.8075 67.0679 57.8056 67.076 57.8028 67.082L56.0036 66.2084C55.8545 66.5154 55.788 66.8561 55.8117 67.1976L57.8069 67.0589ZM57.8029 67.0817C57.8366 67.0121 57.8971 66.8917 57.9459 66.7835L56.123 65.9608C56.0893 66.0354 56.0573 66.0978 56.0035 66.2086L57.8029 67.0817ZM58.4094 75.0839C56.2981 75.3316 54.1733 75.4539 52.0468 75.45L52.0432 77.45C54.2488 77.454 56.4526 77.3272 58.6425 77.0702L58.4094 75.0839ZM52.045 75.45C51.4553 75.45 50.9351 75.366 50.5705 75.2069C50.2272 75.0571 50.1139 74.8901 50.0761 74.7185L48.123 75.1493C48.339 76.1282 49.0358 76.7193 49.7705 77.0399C50.4839 77.3512 51.3095 77.45 52.045 77.45V75.45ZM50.0753 74.7148C49.9283 74.0605 49.9569 73.7731 50.0161 73.4969L48.0605 73.0778C47.9321 73.6767 47.9232 74.2594 48.1238 75.153L50.0753 74.7148ZM50.0166 73.4946C50.0236 73.4615 50.029 73.4395 50.0333 73.4244C50.0375 73.4095 50.0393 73.4057 50.0379 73.4093C50.0362 73.4132 50.0307 73.4258 50.0198 73.4434C50.0086 73.4615 49.9934 73.4819 49.9742 73.5023C49.9548 73.5227 49.9354 73.5388 49.9183 73.5505C49.9016 73.562 49.8906 73.5671 49.889 73.5678C49.8878 73.5683 49.8961 73.5646 49.9175 73.5588C49.9389 73.5529 49.9714 73.5457 50.0175 73.5386L49.7168 71.5614C49.2849 71.627 48.8517 71.7787 48.5215 72.1276C48.202 72.4652 48.1065 72.8605 48.06 73.0801L50.0166 73.4946ZM50.0155 73.5389C51.3831 73.3338 52.0667 73.5565 54.7856 74.3375L55.3377 72.4152C52.7358 71.6678 51.6016 71.2787 49.7188 71.5611L50.0155 73.5389ZM54.7861 74.3376C56.455 74.8161 57.6159 75.4427 58.2306 75.8952L59.4163 74.2846C58.5808 73.6695 57.1964 72.9481 55.3373 72.415L54.7861 74.3376ZM58.2373 75.9C57.9731 75.7089 58.0094 75.4466 58.0269 75.3869C58.047 75.3187 58.1552 75.103 58.448 75.0801L58.6039 77.074C59.3643 77.0146 59.8032 76.4369 59.946 75.95C60.0864 75.4717 60.0376 74.7341 59.4097 74.2797L58.2373 75.9ZM86.0921 85.0769C84.5201 85.2516 81.3318 85.1866 75.0334 85.1866V87.1866C81.2018 87.1866 84.5944 87.2556 86.3129 87.0647L86.0921 85.0769ZM75.0334 85.1866C68.7349 85.1866 65.5479 85.2516 63.9759 85.0769L63.755 87.0647C65.4735 87.2556 68.8649 87.1866 75.0334 87.1866V85.1866ZM63.9732 85.0766C63.3271 85.0066 62.5882 84.6582 62.2018 84.2583C62.0153 84.0652 61.9915 83.9456 61.9898 83.9187C61.9892 83.9097 61.9889 83.8947 62.0029 83.8636C62.0187 83.8282 62.0606 83.756 62.1676 83.655L60.7951 82.2003C60.2593 82.7058 59.9497 83.3393 59.9937 84.0435C60.0352 84.7079 60.3814 85.2524 60.7634 85.6479C61.5141 86.425 62.7061 86.951 63.7577 87.065L63.9732 85.0766ZM62.1639 83.6585C62.4904 83.3535 63.1377 83.0067 64.1686 82.6866C65.1746 82.3742 66.4516 82.1156 67.9427 81.9271L67.6919 79.9429C66.1263 80.1408 64.7272 80.419 63.5755 80.7766C62.4486 81.1265 61.4562 81.5829 60.7988 82.1968L62.1639 83.6585ZM67.9427 81.9271C71.0053 81.54 72.2397 81.35 75.0209 81.35V79.35C72.0961 79.35 70.7427 79.5573 67.6919 79.9429L67.9427 81.9271ZM75.0209 81.35C77.8107 81.35 78.9227 81.4659 82.0803 81.9258L82.3686 79.9467C79.1502 79.4779 77.9369 79.35 75.0209 79.35V81.35ZM82.0803 81.9258C83.6455 82.1538 84.9902 82.4347 86.0169 82.7504C86.5304 82.9082 86.9452 83.069 87.2602 83.2263C87.5866 83.3893 87.7483 83.5204 87.8125 83.5927L89.3082 82.265C89.003 81.9211 88.5864 81.6531 88.1537 81.437C87.7096 81.2152 87.1843 81.0169 86.6047 80.8387C85.4452 80.4822 83.9913 80.183 82.3686 79.9467L82.0803 81.9258ZM87.8183 83.5992C88.0106 83.8121 88.0035 83.9243 88.0017 83.9497C87.998 84.0001 87.966 84.1215 87.7973 84.2994C87.4412 84.6751 86.7464 85.0067 86.0848 85.0851L86.3202 87.0712C87.3551 86.9485 88.5131 86.4513 89.2487 85.6755C89.6258 85.2778 89.9494 84.7428 89.9964 84.0943C90.0453 83.4208 89.7839 82.7915 89.3024 82.2585L87.8183 83.5992ZM87.2025 86.0781V86.0708H85.2025V86.0781H87.2025ZM99.9148 74.7211C99.878 74.8912 99.7666 75.0572 99.4223 75.2068C99.0566 75.3657 98.5351 75.4488 97.9467 75.4488V77.4488C98.6786 77.4488 99.5048 77.3515 100.219 77.0412C100.955 76.7215 101.656 76.1294 101.87 75.1442L99.9148 74.7211ZM97.9465 75.4488C95.7767 75.4493 93.6087 75.3269 91.4536 75.0822L91.228 77.0695C93.4582 77.3226 95.7017 77.4493 97.947 77.4488L97.9465 75.4488ZM91.4328 75.0801C91.6269 75.098 91.7645 75.1949 91.8386 75.2766C91.9077 75.3528 91.9337 75.4249 91.9437 75.472C91.9616 75.5556 91.9549 75.7455 91.777 75.882L90.5595 74.2953C89.994 74.7292 89.8823 75.395 89.9877 75.8891C90.0829 76.3357 90.4576 76.9985 91.2488 77.0716L91.4328 75.0801ZM91.7766 75.8823C92.3639 75.4321 93.5268 74.8184 95.206 74.3363L94.6541 72.4139C92.8103 72.9433 91.4002 73.6508 90.5598 74.295L91.7766 75.8823ZM95.2061 74.3362C97.8995 73.5626 99.2057 73.3393 100.252 73.5416L100.632 71.5779C99.0432 71.2708 97.2814 71.6593 94.654 72.414L95.2061 74.3362ZM100.252 73.5415C100.099 73.5119 100.02 73.4224 99.9994 73.3932C99.9877 73.377 99.981 73.3634 99.9763 73.3509C99.9723 73.3406 99.9626 73.3127 99.9579 73.2636L101.949 73.0747C101.921 72.7845 101.806 72.4798 101.622 72.2241C101.431 71.9585 101.106 71.6697 100.632 71.578L100.252 73.5415ZM99.9645 73.3177C100.034 73.7832 100.018 74.2572 99.9159 74.7172L101.868 75.1505C102.024 74.4507 102.049 73.7292 101.942 73.0206L99.9645 73.3177ZM101.892 74.9339V74.9327H99.8922V74.9339H101.892Z" fill="#0066FF" mask="url(#path-2-inside-1_2_2138)"/>
</svg>
